<svg xmlns="http://www.w3.org/2000/svg" xmlns:xlink="http://www.w3.org/1999/xlink" width="129.972" height="75.132" viewBox="0 0 129.972 75.132">
  <defs>
    <clipPath id="clip-path">
      <path id="Path_35" data-name="Path 35" d="M0-2.978H129.972V-78.11H0Z" transform="translate(0 78.11)"/>
    </clipPath>
  </defs>
  <g id="Group_516" data-name="Group 516" transform="translate(-331 -26)">
    <g id="Group_52" data-name="Group 52" transform="translate(331 26)" clip-path="url(#clip-path)">
      <g id="Group_33" data-name="Group 33" transform="translate(0.043 65.22)">
        <path id="Path_16" data-name="Path 16" d="M-.027-.393A1.65,1.65,0,0,1-.7-.518V-.95a2.317,2.317,0,0,0,.647.1Q.7-.849.7-1.732V-8.309h.5V-1.8A1.538,1.538,0,0,1,.878-.759a1.136,1.136,0,0,1-.905.366M.63-9.823q0-.482.315-.482a.282.282,0,0,1,.243.125.617.617,0,0,1,.088.357.631.631,0,0,1-.088.356.278.278,0,0,1-.243.13C.735-9.337.63-9.5.63-9.823" transform="translate(0.704 10.305)"/>
      </g>
      <g id="Group_34" data-name="Group 34" transform="translate(3.384 67.11)">
        <path id="Path_17" data-name="Path 17" d="M-.191-.112A3.089,3.089,0,0,1-.838,1.972a2.236,2.236,0,0,1-1.785.749,2.306,2.306,0,0,1-1.263-.346,2.207,2.207,0,0,1-.838-.993,3.618,3.618,0,0,1-.29-1.494A3.064,3.064,0,0,1-4.368-2.19a2.225,2.225,0,0,1,1.775-.745A2.185,2.185,0,0,1-.831-2.18,3.1,3.1,0,0,1-.191-.112m-4.3,0A2.774,2.774,0,0,0-4,1.641a1.672,1.672,0,0,0,1.4.629,1.675,1.675,0,0,0,1.4-.629A2.774,2.774,0,0,0-.713-.112a2.728,2.728,0,0,0-.5-1.75,1.694,1.694,0,0,0-1.4-.621A1.669,1.669,0,0,0-4-1.864,2.77,2.77,0,0,0-4.493-.112" transform="translate(5.014 2.935)"/>
      </g>
      <g id="Group_35" data-name="Group 35" transform="translate(9.568 65.221)">
        <path id="Path_18" data-name="Path 18" d="M0-.019Q0-.5.315-.5a.28.28,0,0,1,.243.125.614.614,0,0,1,.088.356A.629.629,0,0,1,.559.337.277.277,0,0,1,.315.468Q0,.468,0-.019M.567,6.945H.07V1.495h.5Z" transform="translate(0 0.5)"/>
      </g>
      <g id="Group_36" data-name="Group 36" transform="translate(11.861 67.11)">
        <path id="Path_19" data-name="Path 19" d="M-.151-.22V-3.755A1.722,1.722,0,0,0-.5-4.951a1.4,1.4,0,0,0-1.072-.373A1.853,1.853,0,0,0-3-4.829a2.324,2.324,0,0,0-.454,1.6V-.22h-.5V-5.67h.421l.1.747h.03a2.047,2.047,0,0,1,1.89-.852q1.855,0,1.855,1.99V-.22Z" transform="translate(3.951 5.775)"/>
      </g>
      <g id="Group_37" data-name="Group 37" transform="translate(17.08 65.897)">
        <path id="Path_20" data-name="Path 20" d="M-.088-.255a3.764,3.764,0,0,0,.822-.08v.4A2.614,2.614,0,0,1-.1.187,1.354,1.354,0,0,1-1.164-.2a1.791,1.791,0,0,1-.343-1.213V-4.932h-.807v-.291l.807-.225.25-1.233H-1v1.319H.6v.431H-1v3.449A1.572,1.572,0,0,0-.78-.556a.8.8,0,0,0,.692.3" transform="translate(2.314 6.682)"/>
      </g>
      <g id="Group_38" data-name="Group 38" transform="translate(23.423 67.11)">
        <path id="Path_21" data-name="Path 21" d="M-.085,0A4.222,4.222,0,0,1,.657.07l-.1.476A2.9,2.9,0,0,0-.145.462a1.375,1.375,0,0,0-1.144.592,2.409,2.409,0,0,0-.446,1.494V5.555h-.5V.106h.421l.05.982h.036A2.306,2.306,0,0,1-1.007.243,1.676,1.676,0,0,1-.085,0" transform="translate(2.231)"/>
      </g>
      <g id="Group_39" data-name="Group 39" transform="translate(26.9 67.11)">
        <path id="Path_22" data-name="Path 22" d="M-.1-.224A2.373,2.373,0,0,1-1.952-.956a2.941,2.941,0,0,1-.665-2.051A3.2,3.2,0,0,1-1.974-5.1,2.118,2.118,0,0,1-.245-5.88a1.867,1.867,0,0,1,1.519.672,2.773,2.773,0,0,1,.557,1.825v.4H-2.095a2.579,2.579,0,0,0,.523,1.715A1.845,1.845,0,0,0-.1-.675,4.577,4.577,0,0,0,.72-.741a5.023,5.023,0,0,0,.9-.281V-.57A4.026,4.026,0,0,1,.762-.3,4.765,4.765,0,0,1-.1-.224M-.245-5.439a1.634,1.634,0,0,0-1.264.519,2.442,2.442,0,0,0-.556,1.5H1.3A2.378,2.378,0,0,0,.893-4.9,1.357,1.357,0,0,0-.245-5.439" transform="translate(2.617 5.88)"/>
      </g>
      <g id="Group_40" data-name="Group 40" transform="translate(32.33 67.111)">
        <path id="Path_23" data-name="Path 23" d="M-.153-.164A1.294,1.294,0,0,1-.71.961a2.7,2.7,0,0,1-1.578.393,3.763,3.763,0,0,1-1.735-.336V.482A3.829,3.829,0,0,0-2.289.894,2.289,2.289,0,0,0-1.063.626.815.815,0,0,0-.645-.089.873.873,0,0,0-.978-.781a3.691,3.691,0,0,0-1.1-.552,6.23,6.23,0,0,1-1.148-.509,1.578,1.578,0,0,1-.5-.481,1.211,1.211,0,0,1-.167-.654,1.118,1.118,0,0,1,.514-.968A2.494,2.494,0,0,1-1.939-4.3a4.288,4.288,0,0,1,1.675.331l-.185.451a3.923,3.923,0,0,0-1.49-.331A2.152,2.152,0,0,0-3-3.629a.676.676,0,0,0-.391.612.848.848,0,0,0,.3.682A4.231,4.231,0,0,0-1.9-1.764a5.839,5.839,0,0,1,1.073.479,1.56,1.56,0,0,1,.5.484,1.189,1.189,0,0,1,.168.637" transform="translate(4.024 4.3)"/>
      </g>
      <g id="Group_41" data-name="Group 41" transform="translate(37.289 67.11)">
        <path id="Path_24" data-name="Path 24" d="M-.1-.224A2.371,2.371,0,0,1-1.952-.956a2.941,2.941,0,0,1-.665-2.051A3.2,3.2,0,0,1-1.974-5.1,2.115,2.115,0,0,1-.245-5.88a1.867,1.867,0,0,1,1.519.672,2.773,2.773,0,0,1,.557,1.825v.4H-2.1a2.579,2.579,0,0,0,.524,1.715A1.844,1.844,0,0,0-.1-.675,4.577,4.577,0,0,0,.72-.741a5.023,5.023,0,0,0,.9-.281V-.57A4.044,4.044,0,0,1,.762-.3,4.765,4.765,0,0,1-.1-.224M-.245-5.439a1.632,1.632,0,0,0-1.264.519,2.442,2.442,0,0,0-.556,1.5H1.3A2.378,2.378,0,0,0,.893-4.9,1.357,1.357,0,0,0-.245-5.439" transform="translate(2.617 5.88)"/>
      </g>
      <g id="Group_42" data-name="Group 42" transform="translate(42.707 67.12)">
        <path id="Path_25" data-name="Path 25" d="M-.148-.22l-.125-.862h-.04a2.6,2.6,0,0,1-.845.744A2.26,2.26,0,0,1-2.183-.12,1.773,1.773,0,0,1-3.432-.53a1.468,1.468,0,0,1-.446-1.138,1.4,1.4,0,0,1,.665-1.239,3.622,3.622,0,0,1,1.923-.467L-.253-3.4v-.361A1.854,1.854,0,0,0-.569-4.938a1.225,1.225,0,0,0-1.018-.4,3.4,3.4,0,0,0-1.569.421l-.186-.432a4.151,4.151,0,0,1,1.775-.421A1.768,1.768,0,0,1-.226-5.3,2.047,2.047,0,0,1,.219-3.844V-.22ZM-2.153-.571a1.869,1.869,0,0,0,1.376-.5,1.864,1.864,0,0,0,.5-1.386v-.537l-.953.039a3.607,3.607,0,0,0-1.636.359,1.033,1.033,0,0,0-.49.946,1.017,1.017,0,0,0,.314.795,1.275,1.275,0,0,0,.885.283" transform="translate(3.878 5.765)"/>
      </g>
      <g id="Group_43" data-name="Group 43" transform="translate(48.493 67.11)">
        <path id="Path_26" data-name="Path 26" d="M-.085,0A4.23,4.23,0,0,1,.657.07l-.1.476A2.9,2.9,0,0,0-.146.462a1.372,1.372,0,0,0-1.143.592,2.409,2.409,0,0,0-.446,1.494V5.555h-.5V.106h.421l.05.982h.036A2.3,2.3,0,0,1-1.007.243,1.676,1.676,0,0,1-.085,0" transform="translate(2.231)"/>
      </g>
      <g id="Group_44" data-name="Group 44" transform="translate(51.96 67.11)">
        <path id="Path_27" data-name="Path 27" d="M-.1-.224a2.337,2.337,0,0,1-1.83-.737,2.972,2.972,0,0,1-.662-2.056A3.014,3.014,0,0,1-1.9-5.125,2.413,2.413,0,0,1-.024-5.88a3.792,3.792,0,0,1,1.354.246l-.136.441A3.98,3.98,0,0,0-.033-5.428a1.867,1.867,0,0,0-1.52.618,2.716,2.716,0,0,0-.516,1.782A2.633,2.633,0,0,0-1.553-1.3,1.772,1.772,0,0,0-.108-.675,3.548,3.548,0,0,0,1.27-.941V-.48A3.13,3.13,0,0,1-.1-.224" transform="translate(2.591 5.88)"/>
      </g>
      <g id="Group_45" data-name="Group 45" transform="translate(57.103 64.864)">
        <path id="Path_28" data-name="Path 28" d="M-.151-.309V-3.844A1.722,1.722,0,0,0-.5-5.04a1.4,1.4,0,0,0-1.072-.373A1.853,1.853,0,0,0-3-4.919a2.324,2.324,0,0,0-.454,1.6V-.309h-.5v-7.8h.5v2.482l-.025.7h.036a1.826,1.826,0,0,1,.771-.712,2.7,2.7,0,0,1,1.158-.22q1.855,0,1.855,1.99V-.309Z" transform="translate(3.951 8.11)"/>
      </g>
      <g id="Group_46" data-name="Group 46" transform="translate(64.715 67.11)">
        <path id="Path_29" data-name="Path 29" d="M-.1-.224a2.337,2.337,0,0,1-1.83-.737,2.972,2.972,0,0,1-.662-2.056A3.014,3.014,0,0,1-1.9-5.125,2.413,2.413,0,0,1-.024-5.88a3.783,3.783,0,0,1,1.353.246l-.135.441A3.98,3.98,0,0,0-.033-5.428a1.867,1.867,0,0,0-1.52.618,2.716,2.716,0,0,0-.516,1.782A2.633,2.633,0,0,0-1.553-1.3,1.772,1.772,0,0,0-.108-.675,3.548,3.548,0,0,0,1.27-.941V-.48A3.13,3.13,0,0,1-.1-.224" transform="translate(2.591 5.88)"/>
      </g>
      <g id="Group_47" data-name="Group 47" transform="translate(69.418 67.11)">
        <path id="Path_30" data-name="Path 30" d="M-.1-.224A2.371,2.371,0,0,1-1.952-.956a2.941,2.941,0,0,1-.665-2.051A3.2,3.2,0,0,1-1.974-5.1,2.115,2.115,0,0,1-.245-5.88a1.867,1.867,0,0,1,1.519.672,2.773,2.773,0,0,1,.557,1.825v.4H-2.1a2.579,2.579,0,0,0,.524,1.715A1.844,1.844,0,0,0-.1-.675,4.577,4.577,0,0,0,.72-.741a5.023,5.023,0,0,0,.9-.281V-.57A4.037,4.037,0,0,1,.763-.3,4.784,4.784,0,0,1-.1-.224M-.245-5.439a1.632,1.632,0,0,0-1.264.519,2.442,2.442,0,0,0-.556,1.5H1.3A2.378,2.378,0,0,0,.893-4.9,1.356,1.356,0,0,0-.245-5.439" transform="translate(2.617 5.88)"/>
      </g>
      <g id="Group_48" data-name="Group 48" transform="translate(75.284 67.11)">
        <path id="Path_31" data-name="Path 31" d="M-.151-.22V-3.755A1.722,1.722,0,0,0-.5-4.951a1.4,1.4,0,0,0-1.072-.373A1.853,1.853,0,0,0-3-4.829a2.324,2.324,0,0,0-.454,1.6V-.22h-.5V-5.67h.421l.1.747h.03a2.047,2.047,0,0,1,1.89-.852q1.855,0,1.855,1.99V-.22Z" transform="translate(3.951 5.775)"/>
      </g>
      <g id="Group_49" data-name="Group 49" transform="translate(80.503 65.897)">
        <path id="Path_32" data-name="Path 32" d="M-.088-.255a3.764,3.764,0,0,0,.822-.08v.4A2.614,2.614,0,0,1-.1.187,1.354,1.354,0,0,1-1.164-.2a1.791,1.791,0,0,1-.343-1.213V-4.932h-.807v-.291l.807-.225.251-1.233H-1v1.319H.6v.431H-1v3.449A1.572,1.572,0,0,0-.78-.556a.8.8,0,0,0,.692.3" transform="translate(2.314 6.682)"/>
      </g>
      <g id="Group_50" data-name="Group 50" transform="translate(84.228 67.11)">
        <path id="Path_33" data-name="Path 33" d="M-.1-.224A2.373,2.373,0,0,1-1.952-.956a2.941,2.941,0,0,1-.665-2.051A3.2,3.2,0,0,1-1.974-5.1,2.115,2.115,0,0,1-.245-5.88a1.867,1.867,0,0,1,1.519.672,2.773,2.773,0,0,1,.557,1.825v.4H-2.095a2.574,2.574,0,0,0,.523,1.715A1.844,1.844,0,0,0-.1-.675,4.577,4.577,0,0,0,.72-.741a5.023,5.023,0,0,0,.9-.281V-.57A4.037,4.037,0,0,1,.763-.3,4.776,4.776,0,0,1-.1-.224M-.245-5.439a1.632,1.632,0,0,0-1.264.519,2.442,2.442,0,0,0-.556,1.5H1.3A2.378,2.378,0,0,0,.893-4.9,1.356,1.356,0,0,0-.245-5.439" transform="translate(2.617 5.88)"/>
      </g>
      <g id="Group_51" data-name="Group 51" transform="translate(90.094 67.11)">
        <path id="Path_34" data-name="Path 34" d="M-.085,0A4.222,4.222,0,0,1,.657.07l-.1.476A2.9,2.9,0,0,0-.146.462a1.372,1.372,0,0,0-1.143.592,2.409,2.409,0,0,0-.446,1.494V5.555h-.5V.106h.421l.05.982h.036A2.3,2.3,0,0,1-1.007.243,1.676,1.676,0,0,1-.085,0" transform="translate(2.231)"/>
      </g>
    </g>
    <g id="Group_53" data-name="Group 53" transform="translate(425.827 93.215)">
      <path id="Path_36" data-name="Path 36" d="M-.154-.216H-4.045V-.532L-.811-5.225h-3v-.441H-.164v.316L-3.418-.657H-.154Z" transform="translate(4.045 5.666)"/>
    </g>
    <g id="Group_56" data-name="Group 56" transform="translate(331 26)" clip-path="url(#clip-path)">
      <g id="Group_54" data-name="Group 54" transform="translate(99.471 67.11)">
        <path id="Path_37" data-name="Path 37" d="M-.1-.224A2.374,2.374,0,0,1-1.952-.956a2.941,2.941,0,0,1-.665-2.051A3.2,3.2,0,0,1-1.974-5.1,2.118,2.118,0,0,1-.245-5.88a1.866,1.866,0,0,1,1.519.672,2.773,2.773,0,0,1,.557,1.825v.4H-2.095a2.579,2.579,0,0,0,.523,1.715A1.845,1.845,0,0,0-.1-.675,4.577,4.577,0,0,0,.72-.741a5.023,5.023,0,0,0,.9-.281V-.57A4.037,4.037,0,0,1,.763-.3,4.784,4.784,0,0,1-.1-.224M-.245-5.439a1.634,1.634,0,0,0-1.264.519,2.442,2.442,0,0,0-.556,1.5H1.3A2.378,2.378,0,0,0,.893-4.9,1.357,1.357,0,0,0-.245-5.439" transform="translate(2.617 5.88)"/>
      </g>
      <g id="Group_55" data-name="Group 55" transform="translate(105.097 67.11)">
        <path id="Path_38" data-name="Path 38" d="M-.1-.224A2.374,2.374,0,0,1-1.952-.956a2.941,2.941,0,0,1-.665-2.051A3.2,3.2,0,0,1-1.974-5.1,2.118,2.118,0,0,1-.245-5.88a1.866,1.866,0,0,1,1.519.672,2.773,2.773,0,0,1,.557,1.825v.4H-2.095a2.579,2.579,0,0,0,.523,1.715A1.845,1.845,0,0,0-.1-.675,4.577,4.577,0,0,0,.72-.741a5.023,5.023,0,0,0,.9-.281V-.57A4.037,4.037,0,0,1,.763-.3,4.776,4.776,0,0,1-.1-.224M-.245-5.439a1.635,1.635,0,0,0-1.264.519,2.442,2.442,0,0,0-.556,1.5H1.3A2.378,2.378,0,0,0,.893-4.9,1.356,1.356,0,0,0-.245-5.439" transform="translate(2.617 5.88)"/>
      </g>
    </g>
    <path id="Path_40" data-name="Path 40" d="M115.374-2.873h.5v-7.8h-.5Z" transform="translate(326.601 101.539)"/>
    <g id="Group_64" data-name="Group 64" transform="translate(331 26)" clip-path="url(#clip-path)">
      <g id="Group_57" data-name="Group 57" transform="translate(112.762 67.12)">
        <path id="Path_41" data-name="Path 41" d="M-.148-.22l-.125-.862h-.04a2.6,2.6,0,0,1-.845.744A2.26,2.26,0,0,1-2.183-.12,1.775,1.775,0,0,1-3.432-.53a1.471,1.471,0,0,1-.446-1.138,1.4,1.4,0,0,1,.665-1.239,3.622,3.622,0,0,1,1.923-.467L-.253-3.4v-.361A1.854,1.854,0,0,0-.569-4.938a1.225,1.225,0,0,0-1.018-.4,3.4,3.4,0,0,0-1.569.421l-.186-.432a4.151,4.151,0,0,1,1.775-.421A1.768,1.768,0,0,1-.226-5.3,2.047,2.047,0,0,1,.218-3.844V-.22ZM-2.153-.571a1.869,1.869,0,0,0,1.376-.5,1.864,1.864,0,0,0,.5-1.386v-.537l-.953.039a3.607,3.607,0,0,0-1.636.359,1.033,1.033,0,0,0-.49.946,1.017,1.017,0,0,0,.314.795,1.275,1.275,0,0,0,.885.283" transform="translate(3.878 5.765)"/>
      </g>
      <g id="Group_58" data-name="Group 58" transform="translate(118.549 67.11)">
        <path id="Path_42" data-name="Path 42" d="M-.151-.22V-3.755A1.722,1.722,0,0,0-.5-4.951a1.4,1.4,0,0,0-1.072-.373A1.853,1.853,0,0,0-3-4.829a2.324,2.324,0,0,0-.454,1.6V-.22h-.5V-5.67h.421l.1.747h.03a2.047,2.047,0,0,1,1.89-.852q1.855,0,1.855,1.99V-.22Z" transform="translate(3.951 5.775)"/>
      </g>
      <g id="Group_59" data-name="Group 59" transform="translate(124.257 64.864)">
        <path id="Path_43" data-name="Path 43" d="M-.092-.089A2.267,2.267,0,0,1,.931.126,2.039,2.039,0,0,1,1.7.863h.03Q1.7.231,1.7-.375v-1.96h.492v7.8H1.869l-.125-.832H1.7a2.019,2.019,0,0,1-1.785.933,2.14,2.14,0,0,1-1.725-.7,3.085,3.085,0,0,1-.6-2.046A3.416,3.416,0,0,1-1.811.658,2.063,2.063,0,0,1-.092-.089m0,.451A1.54,1.54,0,0,0-1.432.989a3.1,3.1,0,0,0-.449,1.82q0,2.316,1.8,2.316a1.634,1.634,0,0,0,1.354-.537A2.853,2.853,0,0,0,1.7,2.819V2.734A3.032,3.032,0,0,0,1.279.916,1.615,1.615,0,0,0-.092.362" transform="translate(2.403 2.335)"/>
      </g>
      <g id="Group_60" data-name="Group 60" transform="translate(123.113 26.651)">
        <path id="Path_44" data-name="Path 44" d="M-.272-.136A3.43,3.43,0,0,1-3.7,3.294,3.43,3.43,0,0,1-7.131-.136,3.43,3.43,0,0,1-3.7-3.566,3.43,3.43,0,0,1-.272-.136" transform="translate(7.131 3.566)"/>
      </g>
      <g id="Group_61" data-name="Group 61" transform="translate(12.712 0.475)">
        <path id="Path_45" data-name="Path 45" d="M-.184-1.723A21.9,21.9,0,0,1-4.823-2.2V-9.146q.724.136,1.539.3a8.555,8.555,0,0,0,1.765.17,3.621,3.621,0,0,0,3.168-1.335,8.184,8.184,0,0,0,.95-4.572V-45.2h8.984v29.85q0,6.722-2.941,10.173T-.184-1.723" transform="translate(4.823 45.197)"/>
      </g>
      <g id="Group_62" data-name="Group 62" transform="translate(34.421 0.475)">
        <path id="Path_46" data-name="Path 46" d="M-.354-.834v12.04h-8.94V-21.881H1.546q13.489,0,13.488,9.776,0,5.748-5.613,8.893l9.641,14.417H8.924L1.909-.834Zm0-6.722H1.32Q6.005-7.556,6-11.7q0-3.418-4.594-3.418H-.354Z" transform="translate(9.294 21.881)"/>
      </g>
      <g id="Group_63" data-name="Group 63" transform="translate(61.798 0)">
        <path id="Path_47" data-name="Path 47" d="M-.632-.291A5.7,5.7,0,0,0-5.611,2.323,12.626,12.626,0,0,0-7.4,9.531q0,9.55,7.265,9.55a14.894,14.894,0,0,0,4.254-.611A42.475,42.475,0,0,0,8.261,17v7.559a22.924,22.924,0,0,1-9.369,1.833q-7.491,0-11.486-4.346t-3.994-12.56A20.043,20.043,0,0,1-14.653.456,13.844,13.844,0,0,1-9.085-5.529,16.813,16.813,0,0,1-.542-7.623,23.527,23.527,0,0,1,9.71-5.291L6.971,1.746A30.811,30.811,0,0,0,3.305.3,12.809,12.809,0,0,0-.632-.291" transform="translate(16.587 7.623)"/>
      </g>
    </g>
    <g id="Group_65" data-name="Group 65" transform="translate(421.836 26.473)">
      <path id="Path_49" data-name="Path 49" d="M-1.022-1.312H-26.8V-6.834l7.219-10.252,7.107-10.094H-26.459V-34.4H-1.383v5.5l-5.35,7.606L-15.71-8.531H-1.022Z" transform="translate(26.799 34.399)"/>
    </g>
    <g id="Group_66" data-name="Group 66" transform="translate(331 64.732)">
      <path id="Path_50" data-name="Path 50" d="M-4.908,0V10.973H-123.375V0h-5.354V16.408H.483V0Z" transform="translate(128.729)"/>
    </g>
  </g>
</svg>
